<mxfile host="Electron" modified="2024-02-05T19:00:08.415Z" agent="Mozilla/5.0 (Windows NT 10.0; Win64; x64) AppleWebKit/537.36 (KHTML, like Gecko) draw.io/23.0.2 Chrome/120.0.6099.109 Electron/28.1.0 Safari/537.36" etag="D1cjRwMiX6XOVKY-_OB2" version="23.0.2" type="device">
  <diagram id="C5RBs43oDa-KdzZeNtuy" name="Page-1">
    <mxGraphModel dx="744" dy="1034" grid="1" gridSize="10" guides="1" tooltips="1" connect="1" arrows="1" fold="1" page="1" pageScale="1" pageWidth="1169" pageHeight="1654" math="0" shadow="0">
      <root>
        <mxCell id="WIyWlLk6GJQsqaUBKTNV-0" />
        <mxCell id="WIyWlLk6GJQsqaUBKTNV-1" parent="WIyWlLk6GJQsqaUBKTNV-0" />
        <mxCell id="kwM6PjjK7joufg_9nkA6-5" style="edgeStyle=orthogonalEdgeStyle;rounded=0;orthogonalLoop=1;jettySize=auto;html=1;entryX=0.5;entryY=0;entryDx=0;entryDy=0;" edge="1" parent="WIyWlLk6GJQsqaUBKTNV-1" source="kwM6PjjK7joufg_9nkA6-0" target="kwM6PjjK7joufg_9nkA6-4">
          <mxGeometry relative="1" as="geometry" />
        </mxCell>
        <mxCell id="kwM6PjjK7joufg_9nkA6-0" value="int main() {" style="ellipse;whiteSpace=wrap;html=1;" vertex="1" parent="WIyWlLk6GJQsqaUBKTNV-1">
          <mxGeometry x="310" y="160" width="120" height="80" as="geometry" />
        </mxCell>
        <mxCell id="kwM6PjjK7joufg_9nkA6-1" value="" style="endArrow=none;dashed=1;html=1;rounded=0;entryX=1;entryY=0.5;entryDx=0;entryDy=0;" edge="1" parent="WIyWlLk6GJQsqaUBKTNV-1" target="kwM6PjjK7joufg_9nkA6-0">
          <mxGeometry width="50" height="50" relative="1" as="geometry">
            <mxPoint x="560" y="200" as="sourcePoint" />
            <mxPoint x="500" y="460" as="targetPoint" />
          </mxGeometry>
        </mxCell>
        <mxCell id="kwM6PjjK7joufg_9nkA6-2" value="" style="endArrow=none;html=1;rounded=0;" edge="1" parent="WIyWlLk6GJQsqaUBKTNV-1">
          <mxGeometry width="50" height="50" relative="1" as="geometry">
            <mxPoint x="560" y="240" as="sourcePoint" />
            <mxPoint x="560" y="120" as="targetPoint" />
          </mxGeometry>
        </mxCell>
        <mxCell id="kwM6PjjK7joufg_9nkA6-3" value="&lt;div&gt;#include &amp;lt;iostream&amp;gt;&lt;/div&gt;&lt;div&gt;#include &amp;lt;ctime&amp;gt;&lt;/div&gt;&lt;div&gt;using namespace std;&lt;/div&gt;&lt;div&gt;const int n = 5;&lt;/div&gt;&lt;div&gt;int k, K;&lt;/div&gt;&lt;div&gt;int a[n];&lt;/div&gt;" style="text;html=1;align=left;verticalAlign=middle;resizable=0;points=[];autosize=1;strokeColor=none;fillColor=none;" vertex="1" parent="WIyWlLk6GJQsqaUBKTNV-1">
          <mxGeometry x="560" y="130" width="140" height="100" as="geometry" />
        </mxCell>
        <mxCell id="kwM6PjjK7joufg_9nkA6-10" style="edgeStyle=orthogonalEdgeStyle;rounded=0;orthogonalLoop=1;jettySize=auto;html=1;exitX=0.5;exitY=1;exitDx=0;exitDy=0;entryX=0.5;entryY=0;entryDx=0;entryDy=0;" edge="1" parent="WIyWlLk6GJQsqaUBKTNV-1" source="kwM6PjjK7joufg_9nkA6-4" target="kwM6PjjK7joufg_9nkA6-8">
          <mxGeometry relative="1" as="geometry" />
        </mxCell>
        <mxCell id="kwM6PjjK7joufg_9nkA6-4" value="srand(time(NULL));&lt;br&gt;setlocale(LC_ALL, &quot;RU&quot;;&lt;br&gt;" style="rounded=0;whiteSpace=wrap;html=1;align=left;" vertex="1" parent="WIyWlLk6GJQsqaUBKTNV-1">
          <mxGeometry x="290" y="270" width="160" height="50" as="geometry" />
        </mxCell>
        <mxCell id="kwM6PjjK7joufg_9nkA6-12" value="" style="edgeStyle=orthogonalEdgeStyle;rounded=0;orthogonalLoop=1;jettySize=auto;html=1;" edge="1" parent="WIyWlLk6GJQsqaUBKTNV-1" source="kwM6PjjK7joufg_9nkA6-8" target="kwM6PjjK7joufg_9nkA6-11">
          <mxGeometry relative="1" as="geometry" />
        </mxCell>
        <mxCell id="kwM6PjjK7joufg_9nkA6-8" value="cin&amp;gt;&amp;gt;K;" style="shape=parallelogram;perimeter=parallelogramPerimeter;whiteSpace=wrap;html=1;fixedSize=1;align=center;rounded=0;" vertex="1" parent="WIyWlLk6GJQsqaUBKTNV-1">
          <mxGeometry x="310" y="360" width="120" height="20" as="geometry" />
        </mxCell>
        <mxCell id="kwM6PjjK7joufg_9nkA6-14" value="" style="edgeStyle=orthogonalEdgeStyle;rounded=0;orthogonalLoop=1;jettySize=auto;html=1;" edge="1" parent="WIyWlLk6GJQsqaUBKTNV-1" source="kwM6PjjK7joufg_9nkA6-11" target="kwM6PjjK7joufg_9nkA6-13">
          <mxGeometry relative="1" as="geometry" />
        </mxCell>
        <mxCell id="kwM6PjjK7joufg_9nkA6-20" value="" style="edgeStyle=orthogonalEdgeStyle;rounded=0;orthogonalLoop=1;jettySize=auto;html=1;" edge="1" parent="WIyWlLk6GJQsqaUBKTNV-1" source="kwM6PjjK7joufg_9nkA6-11" target="kwM6PjjK7joufg_9nkA6-19">
          <mxGeometry relative="1" as="geometry" />
        </mxCell>
        <mxCell id="kwM6PjjK7joufg_9nkA6-11" value="for ( int i = 0; i &amp;lt; n; i++) {" style="shape=hexagon;perimeter=hexagonPerimeter2;whiteSpace=wrap;html=1;fixedSize=1;rounded=0;" vertex="1" parent="WIyWlLk6GJQsqaUBKTNV-1">
          <mxGeometry x="280" y="410" width="180" height="30" as="geometry" />
        </mxCell>
        <mxCell id="kwM6PjjK7joufg_9nkA6-16" value="" style="edgeStyle=orthogonalEdgeStyle;rounded=0;orthogonalLoop=1;jettySize=auto;html=1;" edge="1" parent="WIyWlLk6GJQsqaUBKTNV-1" source="kwM6PjjK7joufg_9nkA6-13" target="kwM6PjjK7joufg_9nkA6-15">
          <mxGeometry relative="1" as="geometry" />
        </mxCell>
        <mxCell id="kwM6PjjK7joufg_9nkA6-13" value="a[i] = rand() % 20;" style="whiteSpace=wrap;html=1;rounded=0;" vertex="1" parent="WIyWlLk6GJQsqaUBKTNV-1">
          <mxGeometry x="310" y="460" width="120" height="20" as="geometry" />
        </mxCell>
        <mxCell id="kwM6PjjK7joufg_9nkA6-17" style="edgeStyle=orthogonalEdgeStyle;rounded=0;orthogonalLoop=1;jettySize=auto;html=1;entryX=0;entryY=0.5;entryDx=0;entryDy=0;" edge="1" parent="WIyWlLk6GJQsqaUBKTNV-1" source="kwM6PjjK7joufg_9nkA6-15" target="kwM6PjjK7joufg_9nkA6-11">
          <mxGeometry relative="1" as="geometry">
            <Array as="points">
              <mxPoint x="370" y="540" />
              <mxPoint x="240" y="540" />
              <mxPoint x="240" y="425" />
            </Array>
          </mxGeometry>
        </mxCell>
        <mxCell id="kwM6PjjK7joufg_9nkA6-15" value="cout&amp;lt;&amp;lt;a[i]&amp;lt;&amp;lt;&quot; &quot;;&lt;br&gt;" style="shape=parallelogram;perimeter=parallelogramPerimeter;whiteSpace=wrap;html=1;fixedSize=1;rounded=0;" vertex="1" parent="WIyWlLk6GJQsqaUBKTNV-1">
          <mxGeometry x="310" y="500" width="120" height="20" as="geometry" />
        </mxCell>
        <mxCell id="kwM6PjjK7joufg_9nkA6-18" value="}" style="text;html=1;align=center;verticalAlign=middle;resizable=0;points=[];autosize=1;strokeColor=none;fillColor=none;" vertex="1" parent="WIyWlLk6GJQsqaUBKTNV-1">
          <mxGeometry x="365" y="518" width="30" height="30" as="geometry" />
        </mxCell>
        <mxCell id="kwM6PjjK7joufg_9nkA6-22" value="" style="edgeStyle=orthogonalEdgeStyle;rounded=0;orthogonalLoop=1;jettySize=auto;html=1;" edge="1" parent="WIyWlLk6GJQsqaUBKTNV-1" source="kwM6PjjK7joufg_9nkA6-19" target="kwM6PjjK7joufg_9nkA6-21">
          <mxGeometry relative="1" as="geometry" />
        </mxCell>
        <mxCell id="kwM6PjjK7joufg_9nkA6-19" value="cout&amp;lt;&amp;lt;endl;" style="shape=parallelogram;perimeter=parallelogramPerimeter;whiteSpace=wrap;html=1;fixedSize=1;rounded=0;" vertex="1" parent="WIyWlLk6GJQsqaUBKTNV-1">
          <mxGeometry x="510" y="450" width="120" height="20" as="geometry" />
        </mxCell>
        <mxCell id="kwM6PjjK7joufg_9nkA6-24" value="" style="edgeStyle=orthogonalEdgeStyle;rounded=0;orthogonalLoop=1;jettySize=auto;html=1;" edge="1" parent="WIyWlLk6GJQsqaUBKTNV-1" source="kwM6PjjK7joufg_9nkA6-21" target="kwM6PjjK7joufg_9nkA6-23">
          <mxGeometry relative="1" as="geometry" />
        </mxCell>
        <mxCell id="kwM6PjjK7joufg_9nkA6-21" value="k = K;" style="whiteSpace=wrap;html=1;rounded=0;" vertex="1" parent="WIyWlLk6GJQsqaUBKTNV-1">
          <mxGeometry x="510" y="488" width="120" height="22" as="geometry" />
        </mxCell>
        <mxCell id="kwM6PjjK7joufg_9nkA6-26" value="" style="edgeStyle=orthogonalEdgeStyle;rounded=0;orthogonalLoop=1;jettySize=auto;html=1;" edge="1" parent="WIyWlLk6GJQsqaUBKTNV-1" source="kwM6PjjK7joufg_9nkA6-23" target="kwM6PjjK7joufg_9nkA6-25">
          <mxGeometry relative="1" as="geometry" />
        </mxCell>
        <mxCell id="kwM6PjjK7joufg_9nkA6-39" value="" style="edgeStyle=orthogonalEdgeStyle;rounded=0;orthogonalLoop=1;jettySize=auto;html=1;" edge="1" parent="WIyWlLk6GJQsqaUBKTNV-1" source="kwM6PjjK7joufg_9nkA6-23" target="kwM6PjjK7joufg_9nkA6-38">
          <mxGeometry relative="1" as="geometry" />
        </mxCell>
        <mxCell id="kwM6PjjK7joufg_9nkA6-23" value="for (int i = 0; i &amp;lt; n; i++) {" style="shape=hexagon;perimeter=hexagonPerimeter2;whiteSpace=wrap;html=1;fixedSize=1;rounded=0;" vertex="1" parent="WIyWlLk6GJQsqaUBKTNV-1">
          <mxGeometry x="490" y="540" width="160" height="30" as="geometry" />
        </mxCell>
        <mxCell id="kwM6PjjK7joufg_9nkA6-28" value="" style="edgeStyle=orthogonalEdgeStyle;rounded=0;orthogonalLoop=1;jettySize=auto;html=1;" edge="1" parent="WIyWlLk6GJQsqaUBKTNV-1" source="kwM6PjjK7joufg_9nkA6-25" target="kwM6PjjK7joufg_9nkA6-27">
          <mxGeometry relative="1" as="geometry" />
        </mxCell>
        <mxCell id="kwM6PjjK7joufg_9nkA6-33" value="" style="edgeStyle=orthogonalEdgeStyle;rounded=0;orthogonalLoop=1;jettySize=auto;html=1;" edge="1" parent="WIyWlLk6GJQsqaUBKTNV-1" source="kwM6PjjK7joufg_9nkA6-25" target="kwM6PjjK7joufg_9nkA6-32">
          <mxGeometry relative="1" as="geometry" />
        </mxCell>
        <mxCell id="kwM6PjjK7joufg_9nkA6-25" value="if (k == 0) {" style="rhombus;whiteSpace=wrap;html=1;rounded=0;" vertex="1" parent="WIyWlLk6GJQsqaUBKTNV-1">
          <mxGeometry x="510" y="590" width="120" height="35" as="geometry" />
        </mxCell>
        <mxCell id="kwM6PjjK7joufg_9nkA6-30" value="" style="edgeStyle=orthogonalEdgeStyle;rounded=0;orthogonalLoop=1;jettySize=auto;html=1;" edge="1" parent="WIyWlLk6GJQsqaUBKTNV-1" source="kwM6PjjK7joufg_9nkA6-27" target="kwM6PjjK7joufg_9nkA6-29">
          <mxGeometry relative="1" as="geometry" />
        </mxCell>
        <mxCell id="kwM6PjjK7joufg_9nkA6-27" value="cout&amp;lt;&amp;lt;a[k]&amp;lt;&amp;lt;&quot; &quot;;" style="shape=parallelogram;perimeter=parallelogramPerimeter;whiteSpace=wrap;html=1;fixedSize=1;rounded=0;" vertex="1" parent="WIyWlLk6GJQsqaUBKTNV-1">
          <mxGeometry x="380" y="640" width="120" height="20" as="geometry" />
        </mxCell>
        <mxCell id="kwM6PjjK7joufg_9nkA6-31" style="edgeStyle=orthogonalEdgeStyle;rounded=0;orthogonalLoop=1;jettySize=auto;html=1;exitX=0.5;exitY=1;exitDx=0;exitDy=0;" edge="1" parent="WIyWlLk6GJQsqaUBKTNV-1" source="kwM6PjjK7joufg_9nkA6-29">
          <mxGeometry relative="1" as="geometry">
            <mxPoint x="570" y="740" as="targetPoint" />
          </mxGeometry>
        </mxCell>
        <mxCell id="kwM6PjjK7joufg_9nkA6-29" value="k = n-1;" style="whiteSpace=wrap;html=1;rounded=0;" vertex="1" parent="WIyWlLk6GJQsqaUBKTNV-1">
          <mxGeometry x="380" y="680" width="120" height="20" as="geometry" />
        </mxCell>
        <mxCell id="kwM6PjjK7joufg_9nkA6-35" value="" style="edgeStyle=orthogonalEdgeStyle;rounded=0;orthogonalLoop=1;jettySize=auto;html=1;" edge="1" parent="WIyWlLk6GJQsqaUBKTNV-1" source="kwM6PjjK7joufg_9nkA6-32" target="kwM6PjjK7joufg_9nkA6-34">
          <mxGeometry relative="1" as="geometry" />
        </mxCell>
        <mxCell id="kwM6PjjK7joufg_9nkA6-32" value="cout&amp;lt;&amp;lt;a[k]&amp;lt;&amp;lt;&quot; &quot;;" style="shape=parallelogram;perimeter=parallelogramPerimeter;whiteSpace=wrap;html=1;fixedSize=1;rounded=0;" vertex="1" parent="WIyWlLk6GJQsqaUBKTNV-1">
          <mxGeometry x="640" y="640" width="120" height="20" as="geometry" />
        </mxCell>
        <mxCell id="kwM6PjjK7joufg_9nkA6-36" style="edgeStyle=orthogonalEdgeStyle;rounded=0;orthogonalLoop=1;jettySize=auto;html=1;exitX=0.5;exitY=1;exitDx=0;exitDy=0;entryX=0;entryY=0.5;entryDx=0;entryDy=0;" edge="1" parent="WIyWlLk6GJQsqaUBKTNV-1" source="kwM6PjjK7joufg_9nkA6-34" target="kwM6PjjK7joufg_9nkA6-23">
          <mxGeometry relative="1" as="geometry">
            <mxPoint x="330" y="550" as="targetPoint" />
            <Array as="points">
              <mxPoint x="700" y="720" />
              <mxPoint x="571" y="720" />
              <mxPoint x="571" y="750" />
              <mxPoint x="360" y="750" />
              <mxPoint x="360" y="555" />
            </Array>
          </mxGeometry>
        </mxCell>
        <mxCell id="kwM6PjjK7joufg_9nkA6-34" value="k--;" style="whiteSpace=wrap;html=1;rounded=0;" vertex="1" parent="WIyWlLk6GJQsqaUBKTNV-1">
          <mxGeometry x="640" y="680" width="120" height="20" as="geometry" />
        </mxCell>
        <mxCell id="kwM6PjjK7joufg_9nkA6-41" value="" style="edgeStyle=orthogonalEdgeStyle;rounded=0;orthogonalLoop=1;jettySize=auto;html=1;" edge="1" parent="WIyWlLk6GJQsqaUBKTNV-1" source="kwM6PjjK7joufg_9nkA6-38" target="kwM6PjjK7joufg_9nkA6-40">
          <mxGeometry relative="1" as="geometry" />
        </mxCell>
        <mxCell id="kwM6PjjK7joufg_9nkA6-38" value="cout&amp;lt;&amp;lt;endl;" style="shape=parallelogram;perimeter=parallelogramPerimeter;whiteSpace=wrap;html=1;fixedSize=1;rounded=0;" vertex="1" parent="WIyWlLk6GJQsqaUBKTNV-1">
          <mxGeometry x="810" y="600" width="120" height="20" as="geometry" />
        </mxCell>
        <mxCell id="kwM6PjjK7joufg_9nkA6-43" value="" style="edgeStyle=orthogonalEdgeStyle;rounded=0;orthogonalLoop=1;jettySize=auto;html=1;" edge="1" parent="WIyWlLk6GJQsqaUBKTNV-1" source="kwM6PjjK7joufg_9nkA6-40" target="kwM6PjjK7joufg_9nkA6-42">
          <mxGeometry relative="1" as="geometry" />
        </mxCell>
        <mxCell id="kwM6PjjK7joufg_9nkA6-40" value="k = K;" style="whiteSpace=wrap;html=1;rounded=0;" vertex="1" parent="WIyWlLk6GJQsqaUBKTNV-1">
          <mxGeometry x="810" y="640" width="120" height="20" as="geometry" />
        </mxCell>
        <mxCell id="kwM6PjjK7joufg_9nkA6-46" value="" style="edgeStyle=orthogonalEdgeStyle;rounded=0;orthogonalLoop=1;jettySize=auto;html=1;" edge="1" parent="WIyWlLk6GJQsqaUBKTNV-1" source="kwM6PjjK7joufg_9nkA6-42" target="kwM6PjjK7joufg_9nkA6-45">
          <mxGeometry relative="1" as="geometry" />
        </mxCell>
        <mxCell id="kwM6PjjK7joufg_9nkA6-74" value="" style="edgeStyle=orthogonalEdgeStyle;rounded=0;orthogonalLoop=1;jettySize=auto;html=1;" edge="1" parent="WIyWlLk6GJQsqaUBKTNV-1" source="kwM6PjjK7joufg_9nkA6-42" target="kwM6PjjK7joufg_9nkA6-73">
          <mxGeometry relative="1" as="geometry" />
        </mxCell>
        <mxCell id="kwM6PjjK7joufg_9nkA6-42" value="for (int i = 0; i &amp;lt; n; i++) {" style="shape=hexagon;perimeter=hexagonPerimeter2;whiteSpace=wrap;html=1;fixedSize=1;rounded=0;" vertex="1" parent="WIyWlLk6GJQsqaUBKTNV-1">
          <mxGeometry x="740" y="770" width="260" height="30" as="geometry" />
        </mxCell>
        <mxCell id="kwM6PjjK7joufg_9nkA6-44" value="}" style="text;html=1;align=center;verticalAlign=middle;resizable=0;points=[];autosize=1;strokeColor=none;fillColor=none;" vertex="1" parent="WIyWlLk6GJQsqaUBKTNV-1">
          <mxGeometry x="575" y="728" width="30" height="30" as="geometry" />
        </mxCell>
        <mxCell id="kwM6PjjK7joufg_9nkA6-50" value="" style="edgeStyle=orthogonalEdgeStyle;rounded=0;orthogonalLoop=1;jettySize=auto;html=1;" edge="1" parent="WIyWlLk6GJQsqaUBKTNV-1" source="kwM6PjjK7joufg_9nkA6-45" target="kwM6PjjK7joufg_9nkA6-49">
          <mxGeometry relative="1" as="geometry" />
        </mxCell>
        <mxCell id="kwM6PjjK7joufg_9nkA6-58" value="" style="edgeStyle=orthogonalEdgeStyle;rounded=0;orthogonalLoop=1;jettySize=auto;html=1;" edge="1" parent="WIyWlLk6GJQsqaUBKTNV-1" source="kwM6PjjK7joufg_9nkA6-45" target="kwM6PjjK7joufg_9nkA6-57">
          <mxGeometry relative="1" as="geometry" />
        </mxCell>
        <mxCell id="kwM6PjjK7joufg_9nkA6-45" value="if (k==0) {" style="rhombus;whiteSpace=wrap;html=1;rounded=0;" vertex="1" parent="WIyWlLk6GJQsqaUBKTNV-1">
          <mxGeometry x="830" y="835" width="80" height="45" as="geometry" />
        </mxCell>
        <mxCell id="kwM6PjjK7joufg_9nkA6-47" value="1" style="text;html=1;align=center;verticalAlign=middle;resizable=0;points=[];autosize=1;strokeColor=none;fillColor=none;" vertex="1" parent="WIyWlLk6GJQsqaUBKTNV-1">
          <mxGeometry x="460" y="580" width="30" height="30" as="geometry" />
        </mxCell>
        <mxCell id="kwM6PjjK7joufg_9nkA6-48" value="0" style="text;html=1;align=center;verticalAlign=middle;resizable=0;points=[];autosize=1;strokeColor=none;fillColor=none;" vertex="1" parent="WIyWlLk6GJQsqaUBKTNV-1">
          <mxGeometry x="645" y="578" width="30" height="30" as="geometry" />
        </mxCell>
        <mxCell id="kwM6PjjK7joufg_9nkA6-52" value="" style="edgeStyle=orthogonalEdgeStyle;rounded=0;orthogonalLoop=1;jettySize=auto;html=1;" edge="1" parent="WIyWlLk6GJQsqaUBKTNV-1" source="kwM6PjjK7joufg_9nkA6-49" target="kwM6PjjK7joufg_9nkA6-51">
          <mxGeometry relative="1" as="geometry" />
        </mxCell>
        <mxCell id="kwM6PjjK7joufg_9nkA6-54" style="edgeStyle=orthogonalEdgeStyle;rounded=0;orthogonalLoop=1;jettySize=auto;html=1;exitX=1;exitY=0.5;exitDx=0;exitDy=0;entryX=0.5;entryY=0;entryDx=0;entryDy=0;" edge="1" parent="WIyWlLk6GJQsqaUBKTNV-1" source="kwM6PjjK7joufg_9nkA6-49" target="kwM6PjjK7joufg_9nkA6-55">
          <mxGeometry relative="1" as="geometry">
            <mxPoint x="750" y="1060" as="targetPoint" />
            <Array as="points">
              <mxPoint x="750" y="915" />
              <mxPoint x="810" y="915" />
              <mxPoint x="810" y="1000" />
              <mxPoint x="680" y="1000" />
            </Array>
          </mxGeometry>
        </mxCell>
        <mxCell id="kwM6PjjK7joufg_9nkA6-49" value="if (a[k] % 2 == 0) {" style="rhombus;whiteSpace=wrap;html=1;rounded=0;" vertex="1" parent="WIyWlLk6GJQsqaUBKTNV-1">
          <mxGeometry x="610" y="888" width="140" height="50" as="geometry" />
        </mxCell>
        <mxCell id="kwM6PjjK7joufg_9nkA6-53" style="edgeStyle=orthogonalEdgeStyle;rounded=0;orthogonalLoop=1;jettySize=auto;html=1;exitX=0.5;exitY=1;exitDx=0;exitDy=0;entryX=0.5;entryY=0;entryDx=0;entryDy=0;" edge="1" parent="WIyWlLk6GJQsqaUBKTNV-1" source="kwM6PjjK7joufg_9nkA6-51">
          <mxGeometry relative="1" as="geometry">
            <mxPoint x="680" y="1060" as="targetPoint" />
            <mxPoint x="470" y="980" as="sourcePoint" />
            <Array as="points">
              <mxPoint x="540" y="1000" />
              <mxPoint x="680" y="1000" />
            </Array>
          </mxGeometry>
        </mxCell>
        <mxCell id="kwM6PjjK7joufg_9nkA6-51" value="cout&amp;lt;&amp;lt;a[k]&amp;lt;&amp;lt;&quot; &quot;;" style="shape=parallelogram;perimeter=parallelogramPerimeter;whiteSpace=wrap;html=1;fixedSize=1;rounded=0;" vertex="1" parent="WIyWlLk6GJQsqaUBKTNV-1">
          <mxGeometry x="480" y="950" width="120" height="20" as="geometry" />
        </mxCell>
        <mxCell id="kwM6PjjK7joufg_9nkA6-71" style="edgeStyle=orthogonalEdgeStyle;rounded=0;orthogonalLoop=1;jettySize=auto;html=1;exitX=0.5;exitY=1;exitDx=0;exitDy=0;" edge="1" parent="WIyWlLk6GJQsqaUBKTNV-1" source="kwM6PjjK7joufg_9nkA6-55">
          <mxGeometry relative="1" as="geometry">
            <mxPoint x="871" y="1170" as="targetPoint" />
            <Array as="points">
              <mxPoint x="680" y="1110" />
              <mxPoint x="871" y="1110" />
              <mxPoint x="871" y="1130" />
            </Array>
          </mxGeometry>
        </mxCell>
        <mxCell id="kwM6PjjK7joufg_9nkA6-55" value="k = n-1;" style="rounded=0;whiteSpace=wrap;html=1;" vertex="1" parent="WIyWlLk6GJQsqaUBKTNV-1">
          <mxGeometry x="620" y="1060" width="120" height="20" as="geometry" />
        </mxCell>
        <mxCell id="kwM6PjjK7joufg_9nkA6-62" style="edgeStyle=orthogonalEdgeStyle;rounded=0;orthogonalLoop=1;jettySize=auto;html=1;entryX=0.5;entryY=0;entryDx=0;entryDy=0;" edge="1" parent="WIyWlLk6GJQsqaUBKTNV-1" source="kwM6PjjK7joufg_9nkA6-57" target="kwM6PjjK7joufg_9nkA6-65">
          <mxGeometry relative="1" as="geometry">
            <mxPoint x="950.0000000000002" y="965.0000000000002" as="targetPoint" />
          </mxGeometry>
        </mxCell>
        <mxCell id="kwM6PjjK7joufg_9nkA6-67" style="edgeStyle=orthogonalEdgeStyle;rounded=0;orthogonalLoop=1;jettySize=auto;html=1;entryX=0.5;entryY=0;entryDx=0;entryDy=0;" edge="1" parent="WIyWlLk6GJQsqaUBKTNV-1" source="kwM6PjjK7joufg_9nkA6-57" target="kwM6PjjK7joufg_9nkA6-70">
          <mxGeometry relative="1" as="geometry">
            <mxPoint x="1040" y="1040" as="targetPoint" />
            <Array as="points">
              <mxPoint x="1160" y="913" />
              <mxPoint x="1160" y="1000" />
              <mxPoint x="1040" y="1000" />
            </Array>
          </mxGeometry>
        </mxCell>
        <mxCell id="kwM6PjjK7joufg_9nkA6-57" value="if (a[k] % 2 == 0) {" style="rhombus;whiteSpace=wrap;html=1;rounded=0;" vertex="1" parent="WIyWlLk6GJQsqaUBKTNV-1">
          <mxGeometry x="970" y="888" width="150" height="50" as="geometry" />
        </mxCell>
        <mxCell id="kwM6PjjK7joufg_9nkA6-59" value="1" style="text;html=1;align=center;verticalAlign=middle;resizable=0;points=[];autosize=1;strokeColor=none;fillColor=none;" vertex="1" parent="WIyWlLk6GJQsqaUBKTNV-1">
          <mxGeometry x="645" y="888" width="30" height="30" as="geometry" />
        </mxCell>
        <mxCell id="kwM6PjjK7joufg_9nkA6-60" value="0" style="text;html=1;align=center;verticalAlign=middle;resizable=0;points=[];autosize=1;strokeColor=none;fillColor=none;" vertex="1" parent="WIyWlLk6GJQsqaUBKTNV-1">
          <mxGeometry x="835" y="888" width="30" height="30" as="geometry" />
        </mxCell>
        <mxCell id="kwM6PjjK7joufg_9nkA6-68" style="edgeStyle=orthogonalEdgeStyle;rounded=0;orthogonalLoop=1;jettySize=auto;html=1;exitX=0.5;exitY=1;exitDx=0;exitDy=0;entryX=0.5;entryY=0;entryDx=0;entryDy=0;" edge="1" parent="WIyWlLk6GJQsqaUBKTNV-1" source="kwM6PjjK7joufg_9nkA6-65" target="kwM6PjjK7joufg_9nkA6-70">
          <mxGeometry relative="1" as="geometry">
            <mxPoint x="1040" y="1040" as="targetPoint" />
            <Array as="points">
              <mxPoint x="905" y="1000" />
              <mxPoint x="1040" y="1000" />
            </Array>
          </mxGeometry>
        </mxCell>
        <mxCell id="kwM6PjjK7joufg_9nkA6-65" value="cout&amp;lt;&amp;lt;a[k]&amp;lt;&amp;lt;&quot; &quot;;" style="shape=parallelogram;perimeter=parallelogramPerimeter;whiteSpace=wrap;html=1;fixedSize=1;" vertex="1" parent="WIyWlLk6GJQsqaUBKTNV-1">
          <mxGeometry x="850" y="950" width="110" height="20" as="geometry" />
        </mxCell>
        <mxCell id="kwM6PjjK7joufg_9nkA6-72" style="edgeStyle=orthogonalEdgeStyle;rounded=0;orthogonalLoop=1;jettySize=auto;html=1;exitX=0.5;exitY=1;exitDx=0;exitDy=0;entryX=0;entryY=0.5;entryDx=0;entryDy=0;" edge="1" parent="WIyWlLk6GJQsqaUBKTNV-1" source="kwM6PjjK7joufg_9nkA6-70" target="kwM6PjjK7joufg_9nkA6-42">
          <mxGeometry relative="1" as="geometry">
            <mxPoint x="440" y="780" as="targetPoint" />
            <Array as="points">
              <mxPoint x="1040" y="1110" />
              <mxPoint x="871" y="1110" />
              <mxPoint x="871" y="1170" />
              <mxPoint x="440" y="1170" />
              <mxPoint x="440" y="785" />
            </Array>
          </mxGeometry>
        </mxCell>
        <mxCell id="kwM6PjjK7joufg_9nkA6-70" value="k--;" style="rounded=0;whiteSpace=wrap;html=1;" vertex="1" parent="WIyWlLk6GJQsqaUBKTNV-1">
          <mxGeometry x="1010" y="1060" width="60" height="20" as="geometry" />
        </mxCell>
        <mxCell id="kwM6PjjK7joufg_9nkA6-73" value="return 0;" style="ellipse;whiteSpace=wrap;html=1;rounded=0;" vertex="1" parent="WIyWlLk6GJQsqaUBKTNV-1">
          <mxGeometry x="1250" y="840" width="80" height="55" as="geometry" />
        </mxCell>
        <mxCell id="kwM6PjjK7joufg_9nkA6-75" value="}" style="text;html=1;align=center;verticalAlign=middle;resizable=0;points=[];autosize=1;strokeColor=none;fillColor=none;" vertex="1" parent="WIyWlLk6GJQsqaUBKTNV-1">
          <mxGeometry x="1295" y="808" width="30" height="30" as="geometry" />
        </mxCell>
        <mxCell id="kwM6PjjK7joufg_9nkA6-76" value="}" style="text;html=1;align=center;verticalAlign=middle;resizable=0;points=[];autosize=1;strokeColor=none;fillColor=none;" vertex="1" parent="WIyWlLk6GJQsqaUBKTNV-1">
          <mxGeometry x="875" y="1118" width="30" height="30" as="geometry" />
        </mxCell>
      </root>
    </mxGraphModel>
  </diagram>
</mxfile>
